<svg width="50" height="20" viewBox="0 0 50 20" fill="none" xmlns="http://www.w3.org/2000/svg">
<rect width="50" height="20" rx="6.66667" fill="#65B749"/>
<path d="M15.78 8.09H18.16V9.15H15.78V8.09ZM17.82 5.64H19.15V12.47H17.82V5.64ZM13.02 13.67H19.35V14.73H13.02V13.67ZM13.02 11.8H14.36V14.28H13.02V11.8ZM11.79 6.24H13.11V7.65H14.87V6.24H16.17V11.02H11.79V6.24ZM13.11 8.66V9.97H14.87V8.66H13.11ZM27.2592 5.63H28.5292V14.89H27.2592V5.63ZM26.0892 9.12H27.6192V10.18H26.0892V9.12ZM23.3292 6.76H24.5992C24.5992 9.37 23.8392 11.48 21.2492 12.99L20.4792 12.07C22.5892 10.82 23.3292 9.26 23.3292 7.04V6.76ZM20.9492 6.76H23.7192V7.83H20.9492V6.76ZM25.2092 5.87H26.4492V14.49H25.2092V5.87ZM30.1484 10.2H30.9084C32.6384 10.2 33.7184 10.17 34.9484 9.97L35.0484 11.03C33.7884 11.23 32.6684 11.26 30.9084 11.26H30.1484V10.2ZM30.1384 6.24H34.3184V9.21H31.4684V10.89H30.1484V8.21H33.0084V7.3H30.1384V6.24ZM36.2184 5.64H37.5484V12.45H36.2184V5.64ZM31.3884 13.67H37.7784V14.73H31.3884V13.67ZM31.3884 11.91H32.7184V14.01H31.3884V11.91ZM34.7684 7.85H36.4784V8.97H34.7684V7.85Z" fill="#F5F5F5"/>
</svg>
