<svg width="58" height="56" viewBox="0 0 58 56" fill="none" xmlns="http://www.w3.org/2000/svg">
<path d="M52.9091 24.8693C54.6678 26.5859 54.6678 29.4141 52.9091 31.1307L31.7401 51.7942C30.0405 53.4532 27.3277 53.4532 25.6281 51.7942L4.45911 31.1307C2.70042 29.4141 2.70042 26.5859 4.45912 24.8692L25.6281 4.20575C27.3277 2.54675 30.0405 2.54675 31.7401 4.20576L52.9091 24.8693Z" stroke="#F5F5F5" stroke-width="1.75"/>
<path d="M22.6771 36.9082V18.1326H30.0847C31.5087 18.1326 32.7219 18.4045 33.7243 18.9485C34.7266 19.4863 35.4906 20.235 36.0162 21.1946C36.548 22.148 36.8138 23.2482 36.8138 24.495C36.8138 25.7418 36.5449 26.842 36.0071 27.7954C35.4692 28.7489 34.69 29.4915 33.6693 30.0232C32.6547 30.5549 31.4262 30.8208 29.9838 30.8208H25.2624V27.6396H29.3421C30.1061 27.6396 30.7356 27.5082 31.2307 27.2453C31.7318 26.9764 32.1046 26.6067 32.3491 26.136C32.5997 25.6593 32.725 25.1123 32.725 24.495C32.725 23.8716 32.5997 23.3276 32.3491 22.8631C32.1046 22.3925 31.7318 22.0289 31.2307 21.7722C30.7295 21.5094 30.0938 21.378 29.3238 21.378H26.6468V36.9082H22.6771Z" fill="white"/>
</svg>
