<svg width="46" height="20" viewBox="0 0 46 20" fill="none" xmlns="http://www.w3.org/2000/svg">
<rect width="46" height="20" rx="6.66667" fill="#686F75"/>
<path d="M9.68 6.5H14.11V12.64H9.68V6.5ZM12.8 7.54H10.99V11.59H12.8V7.54ZM15.32 5.63H16.66V14.89H15.32V5.63ZM16.36 9.12H18V10.22H16.36V9.12ZM24.5592 5.63H25.8892V10.79H24.5592V5.63ZM25.5192 7.64H27.1192V8.73H25.5192V7.64ZM21.8992 6.16H23.3192C23.3192 8.62 21.7792 10.29 19.0192 11.01L18.4992 9.96C20.7692 9.39 21.8992 8.21 21.8992 6.82V6.16ZM18.9392 6.16H22.6992V7.21H18.9392V6.16ZM19.8792 11.16H25.8892V14.79H19.8792V11.16ZM24.5792 12.21H21.1892V13.74H24.5792V12.21ZM30.1884 8.78H31.5284V10.32H30.1884V8.78ZM34.2184 5.63H35.5384V11.25H34.2184V5.63ZM28.0084 11.04L27.8684 10.02C29.5284 10.02 31.7584 10.01 33.6784 9.75L33.7584 10.66C31.7884 11.01 29.6384 11.03 28.0084 11.04ZM29.2784 11.63H35.5384V14.79H29.2784V11.63ZM34.2484 12.68H30.5784V13.74H34.2484V12.68ZM28.6184 8.12H33.1484V9.17H28.6184V8.12ZM28.6184 6.1H33.0984V7.16H29.9484V8.48H28.6184V6.1Z" fill="white"/>
</svg>
