<svg width="46" height="20" viewBox="0 0 46 20" fill="none" xmlns="http://www.w3.org/2000/svg">
<rect width="46" height="20" rx="6.66667" fill="#F5F5F5"/>
<path d="M11.8 7.38H12.87V7.5C12.87 7.95333 12.7733 8.37333 12.58 8.76C12.3933 9.14667 12.11 9.47667 11.73 9.75C11.35 10.0233 10.8633 10.2233 10.27 10.35L9.73 9.32C10.21 9.22667 10.6 9.09 10.9 8.91C11.2067 8.72333 11.4333 8.50667 11.58 8.26C11.7267 8.01333 11.8 7.76 11.8 7.5V7.38ZM12.06 7.38H13.13V7.5C13.13 7.74667 13.2 7.98333 13.34 8.21C13.4867 8.43 13.71 8.62667 14.01 8.8C14.31 8.96667 14.69 9.09667 15.15 9.19L14.63 10.21C14.05 10.0967 13.57 9.91 13.19 9.65C12.81 9.39 12.5267 9.07667 12.34 8.71C12.1533 8.33667 12.06 7.93333 12.06 7.5V7.38ZM9.98 6.54H14.94V7.56H9.98V6.54ZM11.79 5.64H13.13V7.28H11.79V5.64ZM11.78 10.88H13.12V14.61H11.78V10.88ZM15.83 5.62H17.16V14.88H15.83V5.62ZM9.59 11.82L9.44 10.73C10 10.73 10.61 10.7267 11.27 10.72C11.93 10.7067 12.6067 10.6833 13.3 10.65C13.9933 10.61 14.6633 10.55 15.31 10.47L15.39 11.43C14.7233 11.5433 14.05 11.63 13.37 11.69C12.69 11.7433 12.0267 11.78 11.38 11.8C10.74 11.8133 10.1433 11.82 9.59 11.82ZM18.6092 12.72H26.9992V13.8H18.6092V12.72ZM22.0892 10.66H23.4192V13.01H22.0892V10.66ZM22.0492 6.14H23.2092V6.81C23.2092 7.20333 23.1526 7.58333 23.0392 7.95C22.9326 8.31667 22.7692 8.66333 22.5492 8.99C22.3359 9.31667 22.0726 9.61333 21.7592 9.88C21.4459 10.14 21.0859 10.3633 20.6792 10.55C20.2792 10.7367 19.8359 10.8733 19.3492 10.96L18.7992 9.85C19.2259 9.78333 19.6092 9.67667 19.9492 9.53C20.2892 9.38333 20.5892 9.21 20.8492 9.01C21.1159 8.80333 21.3359 8.58 21.5092 8.34C21.6892 8.09333 21.8226 7.84 21.9092 7.58C22.0026 7.32 22.0492 7.06333 22.0492 6.81V6.14ZM22.2992 6.14H23.4692V6.81C23.4692 7.07 23.5126 7.33 23.5992 7.59C23.6926 7.85 23.8259 8.1 23.9992 8.34C24.1792 8.58 24.3992 8.80333 24.6592 9.01C24.9192 9.21 25.2192 9.38333 25.5592 9.53C25.9059 9.67667 26.2892 9.78333 26.7092 9.85L26.1592 10.96C25.6726 10.8667 25.2292 10.73 24.8292 10.55C24.4292 10.3633 24.0726 10.14 23.7592 9.88C23.4459 9.62 23.1792 9.33 22.9592 9.01C22.7459 8.68333 22.5826 8.33667 22.4692 7.97C22.3559 7.59667 22.2992 7.21 22.2992 6.81V6.14ZM30.1984 8.78H31.5284V10.31H30.1984V8.78ZM34.2184 5.62H35.5484V11.25H34.2184V5.62ZM28.0184 11.04L27.8784 10.02C28.4318 10.02 29.0351 10.0167 29.6884 10.01C30.3484 9.99667 31.0184 9.97 31.6984 9.93C32.3851 9.89 33.0451 9.82667 33.6784 9.74L33.7584 10.66C33.1051 10.7733 32.4384 10.8567 31.7584 10.91C31.0851 10.9633 30.4284 10.9967 29.7884 11.01C29.1484 11.0233 28.5584 11.0333 28.0184 11.04ZM29.2884 11.63H35.5484V14.79H29.2884V11.63ZM34.2584 12.68H30.5884V13.74H34.2584V12.68ZM28.6184 8.12H33.1484V9.17H28.6184V8.12ZM28.6184 6.1H33.0984V7.15H29.9484V8.47H28.6184V6.1Z" fill="#969697"/>
</svg>
