<svg width="46" height="20" viewBox="0 0 46 20" fill="none" xmlns="http://www.w3.org/2000/svg">
<rect width="46" height="20" rx="6.66667" fill="#65B749"/>
<path d="M9.41 12.74H17.79V13.82H9.41V12.74ZM12.92 10.69H14.25V12.99H12.92V10.69ZM10.28 6.31H16.87V10.86H10.28V6.31ZM15.57 7.37H11.59V9.81H15.57V7.37ZM20.8492 6.43H21.9392V7C21.9392 8.66 21.0792 10.16 19.2992 10.7L18.6292 9.66C20.1792 9.21 20.8492 8.09 20.8492 7V6.43ZM21.1192 6.43H22.2092V7C22.2092 8.03 22.8792 9.08 24.3792 9.51L23.7292 10.54C21.9792 10.03 21.1192 8.6 21.1192 7V6.43ZM18.9892 6.13H24.0292V7.18H18.9892V6.13ZM24.9592 5.63H26.2992V10.65H24.9592V5.63ZM20.1392 11.05H21.4492V11.89H24.9792V11.05H26.2992V14.79H20.1392V11.05ZM21.4492 12.92V13.73H24.9792V12.92H21.4492ZM31.3184 10.28H32.6484V11.91H31.3184V10.28ZM27.7984 9.84H36.1684V10.89H27.7984V9.84ZM31.9684 11.55C33.9684 11.55 35.1784 12.15 35.1784 13.22C35.1784 14.29 33.9684 14.89 31.9684 14.89C29.9584 14.89 28.7484 14.29 28.7484 13.22C28.7484 12.15 29.9584 11.55 31.9684 11.55ZM31.9684 12.55C30.7284 12.55 30.0984 12.76 30.0984 13.22C30.0984 13.67 30.7284 13.89 31.9684 13.89C33.2084 13.89 33.8384 13.67 33.8384 13.22C33.8384 12.76 33.2084 12.55 31.9684 12.55ZM31.0684 6.5H32.2484V6.73C32.2484 8.12 30.9984 9.26 28.6084 9.48L28.1484 8.44C30.1784 8.27 31.0684 7.45 31.0684 6.73V6.5ZM31.7184 6.5H32.8984V6.73C32.8984 7.46 33.7784 8.27 35.8184 8.44L35.3584 9.48C32.9784 9.26 31.7184 8.13 31.7184 6.73V6.5ZM28.5584 6.01H35.4184V7.06H28.5584V6.01Z" fill="white"/>
</svg>
