<svg width="50" height="20" viewBox="0 0 50 20" fill="none" xmlns="http://www.w3.org/2000/svg">
<rect width="50" height="20" rx="6.66667" fill="#D7260D" fill-opacity="0.6"/>
<path d="M14.77 5.88V9.3H15.98V10.27H14.77V14.79H13.58V5.88H14.77ZM11.08 11.56V7.64H9.18V11.56H11.08ZM12.25 6.7V12.49H8.02V6.7H12.25ZM24.6923 8.9H23.4223V10.84H22.2423V5.88H23.4223V7.95H24.6923V8.9ZM23.4223 14.68H17.6523V11.27H23.4223V14.68ZM22.2523 13.77V12.18H18.8223V13.77H22.2523ZM20.9323 6.42C20.9123 7.61333 20.5457 8.59 19.8323 9.35C19.1257 10.11 18.1557 10.6367 16.9223 10.93L16.3523 10C16.8657 9.91333 17.3457 9.76333 17.7923 9.55C18.2457 9.33667 18.6457 9.04 18.9923 8.66C19.3457 8.28 19.5623 7.85333 19.6423 7.38H16.7823V6.42H20.9323ZM31.3047 5.88H32.4647V10.9H31.3047V5.88ZM32.4647 14.68H26.6047V11.37H32.4647V14.68ZM31.3047 13.77V12.27H27.7747V13.77H31.3047ZM25.4247 8.51C25.4247 7.89667 25.6514 7.38667 26.1047 6.98C26.558 6.56667 27.1147 6.36 27.7747 6.36C28.4414 6.36 29.0014 6.56333 29.4547 6.97C29.908 7.37667 30.1347 7.89 30.1347 8.51C30.1347 9.13 29.9114 9.63 29.4647 10.01C29.018 10.39 28.4547 10.58 27.7747 10.58C27.108 10.58 26.548 10.39 26.0947 10.01C25.648 9.63 25.4247 9.13 25.4247 8.51ZM26.5447 8.5C26.5447 8.84667 26.658 9.13 26.8847 9.35C27.1114 9.57 27.408 9.68 27.7747 9.68C28.128 9.68 28.4214 9.57 28.6547 9.35C28.8947 9.12333 29.0147 8.84 29.0147 8.5C29.0147 8.16 28.9014 7.88 28.6747 7.66C28.4547 7.44 28.1547 7.33 27.7747 7.33C27.408 7.33 27.1114 7.44333 26.8847 7.67C26.658 7.89667 26.5447 8.17333 26.5447 8.5ZM41.987 9H40.727V11.08H39.537V5.88H40.727V8.05H41.987V9ZM34.877 11.52H40.727V14.8H39.547V12.45H34.877V11.52ZM38.197 10.57H33.977V6.42H35.137V7.67H37.017V6.41H38.197V10.57ZM37.017 9.65V8.58H35.137V9.65H37.017Z" fill="white"/>
</svg>
