<svg width="50" height="20" viewBox="0 0 50 20" fill="none" xmlns="http://www.w3.org/2000/svg">
<rect width="50" height="20" rx="6.66667" fill="#D7260D" fill-opacity="0.6"/>
<path d="M7.18 6.5H11.61V12.64H7.18V6.5ZM10.3 7.54H8.49V11.59H10.3V7.54ZM12.82 5.63H14.16V14.89H12.82V5.63ZM13.86 9.12H15.5V10.22H13.86V9.12ZM22.0592 5.63H23.3892V10.79H22.0592V5.63ZM23.0192 7.64H24.6192V8.73H23.0192V7.64ZM19.3992 6.16H20.8192C20.8192 8.62 19.2792 10.29 16.5192 11.01L15.9992 9.96C18.2692 9.39 19.3992 8.21 19.3992 6.82V6.16ZM16.4392 6.16H20.1992V7.21H16.4392V6.16ZM17.3792 11.16H23.3892V14.79H17.3792V11.16ZM22.0792 12.21H18.6892V13.74H22.0792V12.21ZM31.6584 5.64H32.9984V10.87H31.6584V5.64ZM26.8384 11.29H32.9984V14.79H26.8384V11.29ZM31.6884 12.33H28.1384V13.74H31.6884V12.33ZM27.9584 6.06C29.3984 6.06 30.4684 6.98 30.4684 8.28C30.4684 9.57 29.3984 10.5 27.9584 10.5C26.5184 10.5 25.4384 9.57 25.4384 8.28C25.4384 6.98 26.5184 6.06 27.9584 6.06ZM27.9584 7.16C27.2584 7.16 26.7384 7.57 26.7384 8.28C26.7384 8.98 27.2584 9.39 27.9584 9.39C28.6584 9.39 29.1684 8.98 29.1684 8.28C29.1684 7.57 28.6584 7.16 27.9584 7.16ZM40.4577 5.63H41.7877V11.18H40.4577V5.63ZM41.4177 7.88H43.0177V8.97H41.4177V7.88ZM35.6077 11.59H41.7877V14.89H40.4577V12.65H35.6077V11.59ZM34.7677 6.21H36.0877V7.43H37.8977V6.21H39.2177V10.71H34.7677V6.21ZM36.0877 8.45V9.67H37.8977V8.45H36.0877Z" fill="white"/>
</svg>
