<svg width="58" height="56" viewBox="0 0 58 56" fill="none" xmlns="http://www.w3.org/2000/svg">
<path d="M52.9102 24.8691C54.6688 26.5858 54.6688 29.4142 52.9102 31.1309L31.7412 51.7939C30.0416 53.4529 27.3285 53.4529 25.6289 51.7939L4.45996 31.1309C2.70128 29.4142 2.70128 26.5858 4.45996 24.8691L25.6289 4.20605C27.3285 2.54705 30.0416 2.54705 31.7412 4.20605L52.9102 24.8691Z" stroke="#F5F5F5" stroke-width="1.75"/>
<path d="M22.6771 36.9087V18.133H30.0847C31.5087 18.133 32.7219 18.405 33.7243 18.949C34.7266 19.4868 35.4906 20.2355 36.0162 21.1951C36.548 22.1485 36.8138 23.2487 36.8138 24.4955C36.8138 25.7423 36.5449 26.8424 36.0071 27.7959C35.4692 28.7494 34.69 29.4919 33.6693 30.0237C32.6547 30.5554 31.4262 30.8213 29.9838 30.8213H25.2624V27.64H29.3421C30.1061 27.64 30.7356 27.5086 31.2307 27.2458C31.7318 26.9769 32.1046 26.6071 32.3491 26.1365C32.5997 25.6598 32.725 25.1128 32.725 24.4955C32.725 23.8721 32.5997 23.3281 32.3491 22.8636C32.1046 22.393 31.7318 22.0294 31.2307 21.7727C30.7295 21.5098 30.0938 21.3784 29.3238 21.3784H26.6468V36.9087H22.6771Z" fill="white"/>
</svg>
