<svg width="56" height="55" viewBox="0 0 56 55" fill="none" xmlns="http://www.w3.org/2000/svg">
<path d="M51.1201 24.8145C52.5338 26.1944 52.5337 28.4677 51.1201 29.8477L30.457 50.0186C29.0908 51.3521 26.9092 51.3521 25.543 50.0186L4.87988 29.8477C3.46634 28.4677 3.46621 26.1944 4.87988 24.8145L25.543 4.64453C26.9092 3.31092 29.0908 3.31092 30.457 4.64453L51.1201 24.8145Z" stroke="black" stroke-opacity="0.8" stroke-width="3.21545"/>
<path d="M22.1361 36.6006V18.2733H29.3667C30.7568 18.2733 31.941 18.5388 32.9194 19.0698C33.8979 19.5948 34.6436 20.3256 35.1567 21.2622C35.6757 22.1929 35.9352 23.2668 35.9352 24.4838C35.9352 25.7009 35.6727 26.7747 35.1477 27.7054C34.6227 28.6361 33.8621 29.361 32.8658 29.88C31.8754 30.399 30.6763 30.6585 29.2683 30.6585H24.6596V27.5533H28.6419C29.3876 27.5533 30.0021 27.425 30.4854 27.1685C30.9746 26.906 31.3385 26.545 31.5771 26.0857C31.8217 25.6203 31.944 25.0864 31.944 24.4838C31.944 23.8753 31.8217 23.3443 31.5771 22.8909C31.3385 22.4315 30.9746 22.0766 30.4854 21.826C29.9961 21.5695 29.3757 21.4412 28.624 21.4412H26.0109V36.6006H22.1361Z" fill="black" fill-opacity="0.8"/>
</svg>
