<svg width="46" height="20" viewBox="0 0 46 20" fill="none" xmlns="http://www.w3.org/2000/svg">
<rect width="46" height="20" rx="6.66667" fill="#686F75"/>
<path d="M11.79 7.39H12.86V7.5C12.86 8.87 12.04 9.99 10.26 10.35L9.73 9.32C11.16 9.06 11.79 8.3 11.79 7.5V7.39ZM12.06 7.39H13.13V7.5C13.13 8.25 13.75 8.94 15.15 9.19L14.63 10.21C12.88 9.88 12.06 8.81 12.06 7.5V7.39ZM9.98 6.55H14.93V7.57H9.98V6.55ZM11.79 5.65H13.13V7.28H11.79V5.65ZM11.78 10.89H13.11V14.61H11.78V10.89ZM15.83 5.63H17.15V14.89H15.83V5.63ZM9.59 11.82L9.43 10.74C11.11 10.74 13.36 10.73 15.3 10.47L15.39 11.43C13.39 11.79 11.24 11.82 9.59 11.82ZM18.6092 12.72H26.9892V13.81H18.6092V12.72ZM22.0892 10.66H23.4092V13.01H22.0892V10.66ZM22.0392 6.14H23.1992V6.81C23.1992 8.78 21.7692 10.52 19.3492 10.96L18.7992 9.85C20.9092 9.51 22.0392 8.09 22.0392 6.81V6.14ZM22.2992 6.14H23.4592V6.81C23.4592 8.12 24.5892 9.51 26.7092 9.85L26.1592 10.96C23.7292 10.51 22.2992 8.81 22.2992 6.81V6.14ZM30.1884 8.78H31.5284V10.32H30.1884V8.78ZM34.2184 5.63H35.5384V11.25H34.2184V5.63ZM28.0084 11.04L27.8684 10.02C29.5284 10.02 31.7584 10.01 33.6784 9.75L33.7584 10.66C31.7884 11.01 29.6384 11.03 28.0084 11.04ZM29.2784 11.63H35.5384V14.79H29.2784V11.63ZM34.2484 12.68H30.5784V13.74H34.2484V12.68ZM28.6184 8.12H33.1484V9.17H28.6184V8.12ZM28.6184 6.1H33.0984V7.16H29.9484V8.48H28.6184V6.1Z" fill="white"/>
</svg>
