<svg width="34" height="32" viewBox="0 0 34 32" fill="none" xmlns="http://www.w3.org/2000/svg">
<path d="M28.5909 13.8221C30.2877 14.7783 30.2877 17.2217 28.5909 18.1779L13.1141 26.9001C11.4476 27.8393 9.38672 26.6351 9.38672 24.7221L9.38672 7.27788C9.38672 5.36493 11.4476 4.16074 13.1141 5.09994L28.5909 13.8221Z" fill="#366943" stroke="#F5F5F5"/>
<path d="M13.4442 20V11.2727H16.8874C17.5493 11.2727 18.1132 11.3991 18.5791 11.652C19.045 11.902 19.4002 12.25 19.6445 12.696C19.8916 13.1392 20.0152 13.6506 20.0152 14.2301C20.0152 14.8097 19.8902 15.321 19.6402 15.7642C19.3902 16.2074 19.028 16.5526 18.5536 16.7997C18.082 17.0469 17.5109 17.1705 16.8405 17.1705H14.6459V15.6918H16.5422C16.8973 15.6918 17.1899 15.6307 17.42 15.5085C17.653 15.3835 17.8263 15.2116 17.9399 14.9929C18.0564 14.7713 18.1146 14.517 18.1146 14.2301C18.1146 13.9403 18.0564 13.6875 17.9399 13.4716C17.8263 13.2528 17.653 13.0838 17.42 12.9645C17.1871 12.8423 16.8916 12.7812 16.5337 12.7812H15.2894V20H13.4442Z" fill="white"/>
</svg>
