<svg width="17" height="12" viewBox="0 0 17 12" fill="none" xmlns="http://www.w3.org/2000/svg">
<path d="M0 12V9.9C0 9.475 0.112428 9.08425 0.337283 8.72775C0.561626 8.37175 0.859893 8.1 1.23209 7.9125C2.02781 7.525 2.83636 7.23425 3.65775 7.04025C4.47914 6.84675 5.31337 6.75 6.16043 6.75C7.00749 6.75 7.84171 6.84675 8.6631 7.04025C9.48449 7.23425 10.293 7.525 11.0888 7.9125C11.461 8.1 11.7592 8.37175 11.9836 8.72775C12.2084 9.08425 12.3209 9.475 12.3209 9.9V12H0ZM13.861 12V9.75C13.861 9.2 13.7039 8.67175 13.3897 8.16525C13.075 7.65925 12.6289 7.225 12.0513 6.8625C12.7059 6.9375 13.3219 7.0655 13.8995 7.2465C14.477 7.428 15.016 7.65 15.5166 7.9125C15.9786 8.1625 16.3316 8.4405 16.5754 8.7465C16.8193 9.053 16.9412 9.3875 16.9412 9.75V12H13.861ZM6.16043 6C5.31337 6 4.58824 5.70625 3.98503 5.11875C3.38182 4.53125 3.08021 3.825 3.08021 3C3.08021 2.175 3.38182 1.46875 3.98503 0.88125C4.58824 0.29375 5.31337 0 6.16043 0C7.00749 0 7.73262 0.29375 8.33583 0.88125C8.93904 1.46875 9.24064 2.175 9.24064 3C9.24064 3.825 8.93904 4.53125 8.33583 5.11875C7.73262 5.70625 7.00749 6 6.16043 6ZM10.7807 6C10.6396 6 10.4599 5.9845 10.2417 5.9535C10.0235 5.922 9.84385 5.8875 9.70267 5.85C10.0492 5.45 10.3154 5.00625 10.5012 4.51875C10.6876 4.03125 10.7807 3.525 10.7807 3C10.7807 2.475 10.6876 1.96875 10.5012 1.48125C10.3154 0.99375 10.0492 0.55 9.70267 0.15C9.88235 0.0874999 10.062 0.0467501 10.2417 0.0277501C10.4214 0.00925013 10.6011 0 10.7807 0C11.6278 0 12.3529 0.29375 12.9562 0.88125C13.5594 1.46875 13.861 2.175 13.861 3C13.861 3.825 13.5594 4.53125 12.9562 5.11875C12.3529 5.70625 11.6278 6 10.7807 6ZM1.54011 10.5H10.7807V9.9C10.7807 9.7625 10.7456 9.6375 10.6753 9.525C10.6044 9.4125 10.5112 9.325 10.3957 9.2625C9.70267 8.925 9.00321 8.67175 8.29733 8.50275C7.59144 8.33425 6.87914 8.25 6.16043 8.25C5.44171 8.25 4.72941 8.33425 4.02353 8.50275C3.31765 8.67175 2.61818 8.925 1.92513 9.2625C1.80963 9.325 1.71671 9.4125 1.64637 9.525C1.57553 9.6375 1.54011 9.7625 1.54011 9.9V10.5ZM6.16043 4.5C6.58396 4.5 6.94665 4.353 7.24851 4.059C7.54986 3.7655 7.70053 3.4125 7.70053 3C7.70053 2.5875 7.54986 2.2345 7.24851 1.941C6.94665 1.647 6.58396 1.5 6.16043 1.5C5.7369 1.5 5.37446 1.647 5.07311 1.941C4.77125 2.2345 4.62032 2.5875 4.62032 3C4.62032 3.4125 4.77125 3.7655 5.07311 4.059C5.37446 4.353 5.7369 4.5 6.16043 4.5Z" fill="#366943"/>
</svg>
