<svg width="46" height="20" viewBox="0 0 46 20" fill="none" xmlns="http://www.w3.org/2000/svg">
<path d="M0 6.67C0 2.98626 2.98626 0 6.67 0H39.33C43.0137 0 46 2.98626 46 6.67V13.33C46 17.0137 43.0137 20 39.33 20H6.67C2.98626 20 0 17.0137 0 13.33V6.67Z" fill="#7CA6D8"/>
<path d="M11.65 6.66H12.75V7.44C12.75 8.02 12.6533 8.57333 12.46 9.1C12.2733 9.62 11.9867 10.0767 11.6 10.47C11.2133 10.8567 10.72 11.1467 10.12 11.34L9.44 10.3C9.96 10.1333 10.38 9.9 10.7 9.6C11.0267 9.3 11.2667 8.96333 11.42 8.59C11.5733 8.21 11.65 7.82667 11.65 7.44V6.66ZM11.93 6.66H13.01V7.44C13.01 7.71333 13.0533 7.98667 13.14 8.26C13.2267 8.52667 13.3567 8.78333 13.53 9.03C13.71 9.27 13.9367 9.48667 14.21 9.68C14.4833 9.87333 14.8067 10.03 15.18 10.15L14.51 11.18C13.93 10.9933 13.45 10.7133 13.07 10.34C12.69 9.96667 12.4033 9.53 12.21 9.03C12.0233 8.52333 11.93 7.99333 11.93 7.44V6.66ZM9.8 6.28H14.84V7.34H9.8V6.28ZM15.77 5.63H17.1V12.31H15.77V5.63ZM10.93 13.66H17.34V14.73H10.93V13.66ZM10.93 11.71H12.26V14.19H10.93V11.71ZM25.2292 5.63H26.4992V11.43H25.2292V5.63ZM24.1092 7.91H25.5792V8.99H24.1092V7.91ZM23.3192 5.8H24.5592V11.12H23.3192V5.8ZM18.5592 6.57H23.0592V7.6H18.5592V6.57ZM20.8192 7.89C21.2126 7.89 21.5592 7.96 21.8592 8.1C22.1592 8.24 22.3926 8.43 22.5592 8.67C22.7326 8.91 22.8192 9.19 22.8192 9.51C22.8192 9.83 22.7326 10.1133 22.5592 10.36C22.3926 10.6 22.1592 10.79 21.8592 10.93C21.5592 11.0633 21.2126 11.13 20.8192 11.13C20.4392 11.13 20.0959 11.0633 19.7892 10.93C19.4892 10.79 19.2526 10.6 19.0792 10.36C18.9059 10.1133 18.8192 9.83 18.8192 9.51C18.8192 9.19 18.9059 8.91 19.0792 8.67C19.2526 8.43 19.4892 8.24 19.7892 8.1C20.0959 7.96 20.4392 7.89 20.8192 7.89ZM20.8192 8.85C20.5792 8.85 20.3826 8.90667 20.2292 9.02C20.0826 9.13333 20.0092 9.29667 20.0092 9.51C20.0092 9.72333 20.0826 9.89 20.2292 10.01C20.3826 10.1233 20.5792 10.18 20.8192 10.18C21.0592 10.18 21.2559 10.1233 21.4092 10.01C21.5626 9.89 21.6392 9.72333 21.6392 9.51C21.6392 9.29667 21.5626 9.13333 21.4092 9.02C21.2626 8.90667 21.0659 8.85 20.8192 8.85ZM20.1592 5.72H21.4692V7.28H20.1592V5.72ZM23.3592 11.52C24.3526 11.52 25.1326 11.6667 25.6992 11.96C26.2659 12.2533 26.5492 12.67 26.5492 13.21C26.5492 13.7433 26.2659 14.1567 25.6992 14.45C25.1326 14.7433 24.3526 14.89 23.3592 14.89C22.3659 14.89 21.5859 14.7433 21.0192 14.45C20.4592 14.1567 20.1792 13.7433 20.1792 13.21C20.1792 12.67 20.4592 12.2533 21.0192 11.96C21.5859 11.6667 22.3659 11.52 23.3592 11.52ZM23.3692 12.51C22.7492 12.51 22.2826 12.5667 21.9692 12.68C21.6559 12.7933 21.4992 12.97 21.4992 13.21C21.4992 13.4433 21.6559 13.6167 21.9692 13.73C22.2826 13.8433 22.7492 13.9 23.3692 13.9C23.9759 13.9 24.4326 13.8433 24.7392 13.73C25.0526 13.6167 25.2092 13.4433 25.2092 13.21C25.2092 12.97 25.0526 12.7933 24.7392 12.68C24.4326 12.5667 23.9759 12.51 23.3692 12.51ZM31.3284 10.28H32.6484V11.91H31.3284V10.28ZM27.7984 9.83H36.1784V10.89H27.7984V9.83ZM31.9684 11.54C32.9684 11.54 33.7551 11.6867 34.3284 11.98C34.9018 12.2667 35.1884 12.68 35.1884 13.22C35.1884 13.7467 34.9018 14.1567 34.3284 14.45C33.7551 14.7433 32.9684 14.89 31.9684 14.89C30.9684 14.89 30.1818 14.7433 29.6084 14.45C29.0418 14.1567 28.7584 13.7467 28.7584 13.22C28.7584 12.68 29.0418 12.2667 29.6084 11.98C30.1818 11.6867 30.9684 11.54 31.9684 11.54ZM31.9684 12.55C31.5551 12.55 31.2084 12.5733 30.9284 12.62C30.6551 12.6667 30.4484 12.74 30.3084 12.84C30.1684 12.9333 30.0984 13.06 30.0984 13.22C30.0984 13.3667 30.1684 13.49 30.3084 13.59C30.4484 13.69 30.6551 13.7633 30.9284 13.81C31.2084 13.8567 31.5551 13.88 31.9684 13.88C32.3818 13.88 32.7251 13.8567 32.9984 13.81C33.2784 13.7633 33.4884 13.69 33.6284 13.59C33.7684 13.49 33.8384 13.3667 33.8384 13.22C33.8384 13.06 33.7684 12.9333 33.6284 12.84C33.4884 12.74 33.2784 12.6667 32.9984 12.62C32.7251 12.5733 32.3818 12.55 31.9684 12.55ZM31.0784 6.5H32.2584V6.72C32.2584 7 32.2084 7.26667 32.1084 7.52C32.0084 7.77333 31.8584 8.01 31.6584 8.23C31.4651 8.44333 31.2218 8.63667 30.9284 8.81C30.6351 8.98333 30.2951 9.12667 29.9084 9.24C29.5218 9.35333 29.0918 9.43333 28.6184 9.48L28.1584 8.43C28.5651 8.39667 28.9251 8.34 29.2384 8.26C29.5584 8.18 29.8318 8.08333 30.0584 7.97C30.2918 7.85 30.4818 7.72333 30.6284 7.59C30.7818 7.45 30.8951 7.30667 30.9684 7.16C31.0418 7.01333 31.0784 6.86667 31.0784 6.72V6.5ZM31.7284 6.5H32.8984V6.72C32.8984 6.86667 32.9351 7.01667 33.0084 7.17C33.0818 7.31667 33.1918 7.45667 33.3384 7.59C33.4918 7.72333 33.6818 7.85 33.9084 7.97C34.1418 8.08333 34.4151 8.18 34.7284 8.26C35.0484 8.34 35.4118 8.39667 35.8184 8.43L35.3584 9.48C34.8851 9.43333 34.4551 9.35333 34.0684 9.24C33.6818 9.12667 33.3418 8.98667 33.0484 8.82C32.7618 8.64667 32.5184 8.45333 32.3184 8.24C32.1251 8.02 31.9784 7.78333 31.8784 7.53C31.7784 7.27 31.7284 7 31.7284 6.72V6.5ZM28.5684 6.01H35.4284V7.06H28.5684V6.01Z" fill="white"/>
</svg>
