<svg width="24" height="24" viewBox="0 0 24 24" fill="none" xmlns="http://www.w3.org/2000/svg">
<circle cx="12" cy="12" r="12" fill="#ECEBE4"/>
<path d="M10.6648 13.9474V13.7784C10.6681 13.1984 10.7195 12.736 10.8189 12.3913C10.9216 12.0466 11.0708 11.7682 11.2663 11.5561C11.4619 11.344 11.6972 11.1518 11.9723 10.9794C12.1778 10.8468 12.3617 10.7093 12.5241 10.5668C12.6866 10.4242 12.8158 10.2668 12.9119 10.0945C13.008 9.9188 13.0561 9.72325 13.0561 9.50781C13.0561 9.27912 13.0014 9.0786 12.892 8.90625C12.7827 8.7339 12.6352 8.60133 12.4496 8.50852C12.2673 8.41572 12.0651 8.36932 11.843 8.36932C11.6276 8.36932 11.4238 8.41738 11.2315 8.51349C11.0393 8.6063 10.8819 8.7455 10.7592 8.93111C10.6366 9.1134 10.5703 9.34044 10.5604 9.61222H8.53196C8.54853 8.94934 8.70762 8.40246 9.00923 7.97159C9.31084 7.53741 9.71023 7.21425 10.2074 7.00213C10.7045 6.78669 11.2531 6.67898 11.853 6.67898C12.5125 6.67898 13.0959 6.78835 13.603 7.0071C14.1101 7.22254 14.5078 7.53575 14.7962 7.94673C15.0845 8.35772 15.2287 8.85322 15.2287 9.43324C15.2287 9.82102 15.1641 10.1657 15.0348 10.4673C14.9089 10.7656 14.7315 11.0308 14.5028 11.2628C14.2741 11.4915 14.004 11.6986 13.6925 11.8842C13.4306 12.04 13.2152 12.2024 13.0462 12.3714C12.8804 12.5405 12.7562 12.736 12.6733 12.9581C12.5938 13.1802 12.5523 13.4536 12.549 13.7784V13.9474H10.6648ZM11.6491 17.1293C11.3177 17.1293 11.0343 17.0133 10.799 16.7812C10.567 16.5459 10.4527 16.2642 10.456 15.9361C10.4527 15.6113 10.567 15.3329 10.799 15.1009C11.0343 14.8688 11.3177 14.7528 11.6491 14.7528C11.964 14.7528 12.2408 14.8688 12.4794 15.1009C12.718 15.3329 12.839 15.6113 12.8423 15.9361C12.839 16.1548 12.781 16.3554 12.6683 16.5376C12.5589 16.7166 12.4148 16.8608 12.2358 16.9702C12.0568 17.0762 11.8613 17.1293 11.6491 17.1293Z" fill="#686F75"/>
</svg>
