
<svg width="50" height="20" viewBox="0 0 50 20" fill="none" xmlns="http://www.w3.org/2000/svg">
<rect width="50" height="20" rx="6.66667" fill="#366943"/>
<path d="M16.43 7.86H18.19V8.94H16.43V7.86ZM17.82 5.63H19.16V11.13H17.82V5.63ZM16.02 11.33C16.6733 11.33 17.2367 11.4 17.71 11.54C18.1833 11.68 18.5467 11.8833 18.8 12.15C19.06 12.4167 19.19 12.7367 19.19 13.11C19.19 13.6833 18.9067 14.1233 18.34 14.43C17.7733 14.7433 17 14.9 16.02 14.9C15.04 14.9 14.2667 14.7433 13.7 14.43C13.1333 14.1233 12.85 13.6833 12.85 13.11C12.85 12.7367 12.9767 12.4167 13.23 12.15C13.49 11.8833 13.8567 11.68 14.33 11.54C14.8033 11.4 15.3667 11.33 16.02 11.33ZM16.02 12.34C15.62 12.34 15.2833 12.37 15.01 12.43C14.7367 12.4833 14.5267 12.5667 14.38 12.68C14.24 12.7933 14.17 12.9367 14.17 13.11C14.17 13.2833 14.24 13.43 14.38 13.55C14.5267 13.6633 14.7367 13.75 15.01 13.81C15.2833 13.8633 15.62 13.89 16.02 13.89C16.42 13.89 16.7567 13.8633 17.03 13.81C17.3033 13.75 17.51 13.6633 17.65 13.55C17.79 13.43 17.86 13.2833 17.86 13.11C17.86 12.9367 17.79 12.7933 17.65 12.68C17.51 12.5667 17.3033 12.4833 17.03 12.43C16.7567 12.37 16.42 12.34 16.02 12.34ZM13.55 6.55H14.63V7.14C14.63 7.72667 14.5367 8.28667 14.35 8.82C14.1633 9.35333 13.8767 9.82333 13.49 10.23C13.11 10.63 12.6233 10.93 12.03 11.13L11.36 10.08C11.74 9.95333 12.0667 9.78333 12.34 9.57C12.62 9.35667 12.8467 9.12 13.02 8.86C13.2 8.59333 13.3333 8.31333 13.42 8.02C13.5067 7.72667 13.55 7.43333 13.55 7.14V6.55ZM13.83 6.55H14.89V7.13C14.89 7.49667 14.9633 7.85667 15.11 8.21C15.2567 8.56333 15.4833 8.88333 15.79 9.17C16.1033 9.45667 16.5033 9.68333 16.99 9.85L16.34 10.89C15.7667 10.6967 15.2933 10.4133 14.92 10.04C14.5533 9.66 14.28 9.22 14.1 8.72C13.92 8.21333 13.83 7.68333 13.83 7.13V6.55ZM11.72 6.19H16.7V7.24H11.72V6.19ZM21.5892 6.14H27.3992V7.21H21.5892V6.14ZM20.6092 10.12H28.9892V11.19H20.6092V10.12ZM22.4792 10.88H23.8092V14.9H22.4792V10.88ZM26.6092 6.14H27.9192V6.73C27.9192 7.14333 27.9059 7.65 27.8792 8.25C27.8526 8.84333 27.7592 9.56333 27.5992 10.41L26.2792 10.33C26.4459 9.51 26.5426 8.80667 26.5692 8.22C26.5959 7.62667 26.6092 7.13 26.6092 6.73V6.14ZM25.6892 10.88H27.0192V14.9H25.6892V10.88ZM30.1584 10.19H30.9084C31.4884 10.19 32.0051 10.1867 32.4584 10.18C32.9118 10.1667 33.3384 10.1433 33.7384 10.11C34.1384 10.0767 34.5418 10.03 34.9484 9.97L35.0584 11.02C34.6318 11.0933 34.2118 11.1467 33.7984 11.18C33.3918 11.2067 32.9551 11.2267 32.4884 11.24C32.0284 11.2533 31.5018 11.26 30.9084 11.26H30.1584V10.19ZM30.1384 6.23H34.3184V9.2H31.4784V10.89H30.1584V8.21H33.0084V7.29H30.1384V6.23ZM36.2184 5.63H37.5584V12.44H36.2184V5.63ZM31.3884 13.66H37.7784V14.73H31.3884V13.66ZM31.3884 11.91H32.7284V14.01H31.3884V11.91ZM34.7684 7.85H36.4884V8.97H34.7684V7.85Z" fill="#F5F5F5"/>
</svg>
