<svg width="23" height="23" viewBox="0 0 23 23" fill="none" xmlns="http://www.w3.org/2000/svg">
<rect y="11.3135" width="16" height="16" rx="8" transform="rotate(-45 0 11.3135)" fill="#F5F5F5"/>
<path fill-rule="evenodd" clip-rule="evenodd" d="M8.58389 7.21881C8.25045 6.88537 7.70984 6.88537 7.37641 7.21881C7.04297 7.55225 7.04297 8.09286 7.37641 8.42629L10.1845 11.2344L7.3759 14.0429C7.04246 14.3764 7.04246 14.917 7.3759 15.2504C7.70934 15.5838 8.24995 15.5838 8.58338 15.2504L11.392 12.4418L14.2007 15.2506C14.5341 15.584 15.0747 15.584 15.4082 15.2506C15.7416 14.9171 15.7416 14.3765 15.4082 14.0431L12.5994 11.2344L15.4077 8.42612C15.7411 8.09268 15.7411 7.55207 15.4077 7.21864C15.0742 6.8852 14.5336 6.8852 14.2002 7.21864L11.392 10.0269L8.58389 7.21881Z" fill="#686F75"/>
</svg>
