<svg width="24" height="24" viewBox="0 0 24 24" fill="none" xmlns="http://www.w3.org/2000/svg">
<path d="M12.4137 7.3581H10.6306V14.4903L16.277 17.8782L17.1685 16.416L12.4137 13.5988V7.3581ZM18.1634 0L23.6398 4.57058L22.1183 6.39525L16.6383 1.82704L18.1634 0ZM5.47519 0L6.99911 1.82585L1.52155 6.39525L0 4.56939L5.47519 0ZM11.8193 2.60327C5.91144 2.60327 1.12095 7.39376 1.12095 13.3016C1.12095 19.2095 5.91144 24 11.8193 24C17.7272 24 22.5177 19.2095 22.5177 13.3016C22.5177 7.39376 17.7272 2.60327 11.8193 2.60327ZM11.8193 21.6226C7.23091 21.6226 3.49837 17.89 3.49837 13.3016C3.49837 8.71322 7.23091 4.98068 11.8193 4.98068C16.4077 4.98068 20.1403 8.71322 20.1403 13.3016C20.1403 17.89 16.4077 21.6226 11.8193 21.6226Z" fill="#686F75"/>
</svg>
